<?xml version="1.0" encoding="utf-8"?>
<!-- Generator: Adobe Illustrator 16.0.4, SVG Export Plug-In . SVG Version: 6.00 Build 0)  -->
<!DOCTYPE svg PUBLIC "-//W3C//DTD SVG 1.1//EN" "http://www.w3.org/Graphics/SVG/1.1/DTD/svg11.dtd">
<svg version="1.1" id="Layer_1" xmlns="http://www.w3.org/2000/svg" xmlns:xlink="http://www.w3.org/1999/xlink" x="0px" y="0px"
	 width="7.321px" height="8.101px" viewBox="0 0 7.321 8.101" enable-background="new 0 0 7.321 8.101" xml:space="preserve">
<g>
	<path fill="#FFFFFF" d="M0.274,1.596L2.422,4.05L0.274,6.505c-0.365,0.365-0.365,0.957,0,1.321c0.365,0.365,0.957,0.365,1.32,0
		l2.066-2.359l2.066,2.359c0.364,0.365,0.956,0.365,1.32,0c0.365-0.364,0.365-0.956,0-1.321L4.9,4.05l2.147-2.454
		C7.413,1.23,7.413,0.639,7.049,0.274c-0.365-0.365-0.957-0.365-1.321,0l-2.066,2.36l-2.066-2.36c-0.365-0.365-0.955-0.365-1.32,0
		S-0.091,1.23,0.274,1.596z"/>
</g>
</svg>
